PathFileType	4	(X/Y/Z)	C:/Users/opensim2020/Desktop/walking_exp_matlab/subject01_walking04_straight_03.trc																																																																																																																															
DataRate	CameraRate	NumFrames	NumMarkers	Units	OrigDataRate	OrigDataStartFrame	OrigNumFrames																																																																																																																											
100	100	6	43	mm	100	2286	211																																																																																																																											
Frame#	Time	LFHD			RFHD			LBHD			RBHD			C7			T10			CLAV			STRN			RBAK			LSHO			LUPA			LELB			LFRM			LWRA			LWRB			LFIN			RSHO			RUPA			RELB			RFRM			RWRA			RWRB			RFIN			LASI			RASI			LPSI			RPSI			LTHI			LKNE			LTIB			LANK			LHEE			LTOE			RTHI			RKNE			RTIB			RANK			RHEE			RTOE			*39			*40			*41			*42		
		X1	Y1	Z1	X2	Y2	Z2	X3	Y3	Z3	X4	Y4	Z4	X5	Y5	Z5	X6	Y6	Z6	X7	Y7	Z7	X8	Y8	Z8	X9	Y9	Z9	X10	Y10	Z10	X11	Y11	Z11	X12	Y12	Z12	X13	Y13	Z13	X14	Y14	Z14	X15	Y15	Z15	X16	Y16	Z16	X17	Y17	Z17	X18	Y18	Z18	X19	Y19	Z19	X20	Y20	Z20	X21	Y21	Z21	X22	Y22	Z22	X23	Y23	Z23	X24	Y24	Z24	X25	Y25	Z25	X26	Y26	Z26	X27	Y27	Z27	X28	Y28	Z28	X29	Y29	Z29	X30	Y30	Z30	X31	Y31	Z31	X32	Y32	Z32	X33	Y33	Z33	X34	Y34	Z34	X35	Y35	Z35	X36	Y36	Z36	X37	Y37	Z37	X38	Y38	Z38	X39	Y39	Z39	X40	Y40	Z40	X41	Y41	Z41	X42	Y42	Z42	X43	Y43	Z43
																																																																																																																																		
185	1.84	714.17719	1658.03503	-1071.75781	726.79828	1660.41687	-957.21747	594.72809	1619.68091	-1066.79077	604.94983	1621.33594	-945.07245	542.94037	1423.80017	-1023.42877	509.34314	1129.69763	-1013.20734	686.33521	1354.16638	-1027.10852	729.92657	1201.75073	-1030.58496	491.64749	1229.74902	-939.66302	619.99603	1381.99854	-1187.59253	566.51526	1198.35657	-1264.34351	531.1377	1053.72473	-1255.49951	544.14233	940.38348	-1276.34009	593.89484	810.17517	-1253.86096	539.21014	817.80432	-1278.30188	568.02954	737.29852	-1282.79944	629.17365	1384.5177	-873.25916	593.78937	1186.83862	-761.04144	610.27008	1060.91858	-747.57867	689.6947	965.47205	-724.65417	812.14691	901.61475	-756.34766	778.44104	882.01599	-713.9585	848.41547	834.8689	-719.23328	693.21997	926.11578	-1115.50867	680.68781	924.32532	-896.7514	504.28867	934.94232	-1077.60559	496.93961	943.48553	-934.49982	736.40765	609.82617	-1191.75928	769.09766	482.5621	-1172.10876	783.51208	298.71918	-1189.15051	847.95355	82.24828	-1147.95361	817.03351	39.04922	-1092.87756	997.26111	90.04147	-1146.9397	565.22546	600.05139	-855.4967	537.40411	441.073	-884.86011	437.14606	294.96872	-883.79413	352.16254	106.50438	-938.57709	293.8475	84.82153	-988.82452	477.94083	36.87704	-946.60327	716.43237	1695.20374	-979.23071	1973.22119	1023.45966	-3101.89722	2012.58972	1022.03088	-3140.66553	NaN	NaN	NaN
186	1.85	724.33466	1657.3158	-1073.49316	736.77319	1659.78113	-958.86493	604.8855	1618.98792	-1068.63928	614.81042	1620.71826	-946.95648	553.04681	1422.94714	-1025.40051	520.18323	1128.72266	-1014.69122	696.56061	1353.53113	-1028.69568	740.67285	1201.27917	-1031.91064	502.05252	1228.83228	-941.44824	630.36481	1380.98987	-1189.30859	577.13788	1197.1377	-1265.79468	541.68921	1052.67957	-1256.51001	554.31183	939.2951	-1277.25842	603.11346	808.75262	-1254.11438	548.78314	816.74121	-1279.11475	577.11877	735.9519	-1283.18726	638.96075	1383.95935	-875.07867	602.85687	1186.31165	-762.8161	619.89471	1060.58911	-749.07782	699.35773	965.30219	-725.9989	821.94226	901.66858	-757.58588	788.19818	882.01648	-715.04517	858.41473	835.16254	-720.27246	704.52399	925.44275	-1116.3031	691.34686	923.46594	-897.67432	515.45319	934.41418	-1078.77539	507.78983	943.04474	-935.90161	749.45398	609.72589	-1190.77026	780.8172	482.04156	-1171.0459	793.38281	297.32489	-1188.20361	854.98206	79.96142	-1146.32166	823.10486	38.05117	-1091.85278	1004.73749	86.80271	-1144.12048	574.75739	599.76453	-855.93646	546.08197	440.62628	-884.6297	443.07159	296.22095	-883.50793	354.36713	109.43364	-937.63995	295.6348	88.96161	-987.70929	478.2243	36.8427	-946.40802	726.47931	1694.54626	-980.93781	1973.22668	1023.18451	-3101.92603	2012.52551	1022.00354	-3140.5271	NaN	NaN	NaN
187	1.86	734.46088	1656.58801	-1075.15356	746.59692	1659.18945	-960.49799	614.98474	1618.26978	-1070.65039	624.69159	1620.04846	-948.97583	563.25702	1421.91394	-1027.31982	531.19592	1127.73792	-1016.03674	706.90192	1352.92371	-1030.40845	751.33405	1200.72778	-1033.25073	512.49384	1227.91479	-943.24084	640.80975	1380.00146	-1191.21155	587.85071	1195.89966	-1267.31665	552.4577	1051.6488	-1257.75964	564.74762	938.21191	-1278.25586	612.98901	807.45862	-1254.7511	558.6828	815.73389	-1280.05481	586.77826	734.66553	-1283.70154	648.81067	1383.51172	-876.80524	612.08258	1185.92761	-764.68152	629.18768	1060.28955	-750.578	708.88544	965.11816	-727.30927	831.47601	901.56305	-758.77832	797.89569	881.9444	-716.10431	868.06018	835.10553	-721.37067	716.05707	924.82477	-1117.2489	702.19818	922.69592	-898.59723	526.90497	933.81952	-1080.07605	518.86737	942.67749	-937.19458	762.51416	609.66827	-1189.56641	792.70349	481.59955	-1169.92505	802.79889	295.73672	-1187.06506	860.75903	78.14156	-1144.83313	826.68518	38.04412	-1091.35364	1010.07538	82.05267	-1141.17627	584.96014	599.25806	-856.40625	555.49963	439.98557	-884.47333	449.37326	297.6987	-883.27264	356.65378	112.75221	-936.68378	297.39975	93.76238	-986.92877	478.51114	36.82627	-946.27533	736.26678	1693.72217	-982.73676	1973.16711	1023.38788	-3101.93896	2012.52234	1021.94336	-3140.60229	NaN	NaN	NaN
188	1.87	744.54425	1655.91577	-1077.00854	756.36676	1658.55444	-962.27606	625.05072	1617.48792	-1072.81372	634.38855	1619.32458	-951.04846	573.41394	1420.84766	-1029.56055	542.4303	1126.63708	-1017.55603	717.31403	1352.29822	-1032.18994	762.23926	1200.23718	-1034.64746	523.05701	1226.92236	-945.13391	651.3725	1378.95789	-1193.18237	598.62372	1194.70593	-1268.98413	563.31281	1050.38562	-1259.0802	575.49915	937.03406	-1279.37415	623.4303	806.18817	-1255.54736	569.21338	814.52405	-1280.86328	597.03534	733.42242	-1284.3479	658.8653	1383.03333	-878.83521	621.21179	1185.48608	-766.60059	638.36316	1059.9939	-752.21667	718.05701	964.71765	-728.78418	840.74738	901.17029	-760.00684	806.93988	881.4046	-717.69336	877.37091	834.89752	-722.33636	727.76331	924.21759	-1118.2644	713.39331	921.94568	-899.52637	538.43768	933.15527	-1081.44263	530.32574	942.2074	-938.34979	775.27887	609.33063	-1187.98132	804.6778	481.15155	-1168.51501	811.66895	293.95007	-1185.90137	864.89081	75.92451	-1143.34595	828.56781	37.45128	-1091.005	1014.31647	75.12038	-1137.45239	595.48853	598.64392	-856.92499	565.57666	439.10239	-884.29065	456.1102	299.061	-882.97992	359.12357	116.02554	-935.93555	299.60007	98.76327	-985.92877	478.90829	36.82501	-946.00696	746.15741	1693.20532	-984.49103	1973.1543	1023.4173	-3101.95435	2012.66614	1022.09741	-3140.71899	NaN	NaN	NaN
189	1.88	754.67078	1655.35278	-1078.78076	765.92938	1657.96484	-964.05585	635.15027	1616.79944	-1075.08838	644.06873	1618.63635	-953.2309	583.56567	1419.88428	-1032.04211	553.71698	1125.53943	-1019.07916	727.78638	1351.62244	-1034.05786	773.20825	1199.81091	-1036.1604	533.64166	1225.9679	-947.10419	662.08942	1377.98376	-1195.29895	609.60559	1193.4613	-1270.62708	574.41333	1049.24634	-1260.54431	586.56732	935.83289	-1280.63013	634.28668	804.94574	-1256.47729	580.13538	813.39905	-1281.93628	607.77844	732.1377	-1285.32141	668.85498	1382.47522	-880.75616	630.41193	1185.16028	-768.56622	647.42303	1059.61694	-753.89557	727.0556	964.26721	-730.22864	849.70697	900.53076	-761.20288	815.84552	880.98407	-718.79791	886.12061	834.09912	-723.69672	739.43262	923.67609	-1119.271	724.25818	920.90332	-900.93945	549.9646	932.43616	-1082.84644	541.61121	941.75299	-939.83319	787.66638	608.72064	-1185.98792	816.44592	480.54993	-1167.56946	820.01007	292.34167	-1184.30688	868.20233	74.75775	-1142.16528	830.12146	38.93938	-1090.3219	1018.2984	65.82846	-1134.15735	606.74292	597.8125	-857.54871	576.42407	438.07193	-884.14294	463.7662	300.44116	-882.67633	362.64938	119.54546	-935.04968	302.5528	104.19958	-985.11658	479.35944	36.80706	-945.69073	755.83417	1692.62451	-986.37219	1973.04346	1023.35748	-3101.88501	2012.46716	1021.82825	-3140.74805	NaN	NaN	NaN
190	1.89	764.81885	1655.30334	-1080.6925	775.56879	1657.80005	-965.67395	645.36371	1616.40393	-1077.47961	653.67981	1618.1792	-955.57202	593.68481	1419.33252	-1034.52649	565.02148	1124.59143	-1020.56866	738.22278	1351.16516	-1035.97729	784.10913	1199.69287	-1037.63867	544.30786	1225.2074	-949.38135	672.89203	1377.04163	-1197.47351	620.57227	1192.24207	-1272.55566	585.74615	1048.00647	-1262.17859	597.92114	934.54041	-1281.93347	645.67114	803.74243	-1257.50415	591.48083	812.12	-1282.98389	619.17664	730.85828	-1286.11572	678.65265	1381.9231	-882.83594	639.67444	1184.92468	-770.51294	656.30267	1059.1543	-755.74469	735.63202	963.62286	-731.62531	858.30786	899.59399	-762.37097	824.479	880.21094	-719.97198	894.5932	833.07434	-724.85736	751.08124	923.31671	-1120.21521	736.05371	920.40009	-901.64496	561.48151	931.83801	-1084.50537	553.04028	941.11951	-941.19379	799.70905	608.06073	-1184.05762	828.08624	480.03268	-1167.39185	828.32819	291.59854	-1182.4397	872.01324	74.62376	-1142.0791	831.99084	40.0129	-1090.99023	1022.28992	58.18904	-1131.50928	618.36938	596.71698	-858.23138	588.06201	437.07269	-884.17865	471.39246	302.24493	-882.6333	366.01126	123.6628	-934.23615	305.78455	110.25808	-984.4021	479.77911	36.89894	-945.6452	765.50214	1692.32849	-988.06378	1973.11084	1023.39496	-3101.92627	2012.55896	1021.96906	-3140.64868	NaN	NaN	NaN
